<svg xmlns="http://www.w3.org/2000/svg" xmlns:xlink="http://www.w3.org/1999/xlink" viewBox="0 0 500 500"><defs><clipPath id="freepik--clip-path--inject-2"><path d="M322.3,415.91c-15.76-2.52-37.51-13.56-37.51-34s-3.15-138.26,0-146.14,10.09-5,17-2.52a17.15,17.15,0,0,1,8,6.38,2.68,2.68,0,0,0,4.13.4,2.59,2.59,0,0,0-.75-4.05c-2.84-1.4-6.7-3.78-7.28-6.51-1-4.41.31-4.1,2.2-5.36a65.09,65.09,0,0,0,5.79-5.2,2.68,2.68,0,1,0-3.9-3.62c-2.27,3.06-7.39,8.63-13.86,7.25-8.83-1.89-14.82-9.14-12-24,2-10.27,10.15-21.45,15-27.34a3.25,3.25,0,0,0-1.09-5.24,3.3,3.3,0,0,0-4.31,1.52c-2.85,5.67-10.54,19.65-16.83,19.4-5.53-.22-12-3.85-15.35-6a1.92,1.92,0,0,0-2.76.67,1.86,1.86,0,0,0,.78,2.49c6.59,3.46,13.61,10.62,14.49,13.87.95,3.47-.94,9.14-7.24,20.8s-24,17.65-32.78,4.73c-7-10.28-8.86-32.92-7.85-43.13a3.46,3.46,0,0,0-3.11-3.85,3.38,3.38,0,0,0-3.6,3.42c.12,7.67,3.7,24,.69,32.53-3.78,10.72-16.07,16.07-23.64,10.4-5.32-4-4.24-14.24-3.13-20a2.16,2.16,0,0,0-2.59-2.72,2.21,2.21,0,0,0-1.81,2.18c0,3.77-.43,13.27-4.44,15.77-3.3,2.06-6.46-.45-8.25-2.44a2.09,2.09,0,0,0-2.85-.27,2.06,2.06,0,0,0-.14,3.09c1.31,1.25,3.47,3.29,6.09,5.74.94,1.33,2.21,3.65,1.37,5.55s-5.2,2.86-7.79,3.23a1.67,1.67,0,0,0-1.36,2.11l0,.08a1.69,1.69,0,0,0,2.44,1c3.49-1.83,11.7-2,13.52-1.94,9.24.59,18.28,6.43,23.19,14.16s4.66,18.35,5.21,27.22c1.26,20.48,1.64,114.78-3.72,122.66s-25,18.44-25,18.44" style="fill:#fff;stroke:#263238;stroke-linecap:round;stroke-linejoin:round;stroke-width:0.75px"></path></clipPath></defs><!--Social tree--><g id="freepik--background-simple--inject-2"><path d="M100.18,397.84s19.77.66,58-7.9,61.94-21.09,99.5-15.16,70.5,27.67,108.71,25,71.17-41.51,58.65-89.61-42.83-49.42-39.54-74.46,34.92-33.6,21.75-79.72-51.4-59.3-73.14-59.3-89.9,47-115.31,41.51-24.38-29.65-76.43-17.79C109.06,128,87.6,158,83.77,189.56a85.33,85.33,0,0,0,7.57,46.63c8.3,17.93,24.48,38.36,23.34,58.86-1.32,23.72-44.15,32.29-46.78,65.24S100.18,397.84,100.18,397.84Z" style="fill:#92E3A9"></path><path d="M100.18,397.84s19.77.66,58-7.9,61.94-21.09,99.5-15.16,70.5,27.67,108.71,25,71.17-41.51,58.65-89.61-42.83-49.42-39.54-74.46,34.92-33.6,21.75-79.72-51.4-59.3-73.14-59.3-89.9,47-115.31,41.51-24.38-29.65-76.43-17.79C109.06,128,87.6,158,83.77,189.56a85.33,85.33,0,0,0,7.57,46.63c8.3,17.93,24.48,38.36,23.34,58.86-1.32,23.72-44.15,32.29-46.78,65.24S100.18,397.84,100.18,397.84Z" style="fill:#fff;opacity:0.8"></path></g><g id="freepik--Plants--inject-2"><path d="M324.37,414.86c9.18,10.36,24.83,11.48,24.83,11.48s.76-15.67-8.42-26-24.84-11.47-24.84-11.47S315.18,404.51,324.37,414.86Z" style="fill:#92E3A9"></path><path d="M324.37,414.86c9.18,10.36,24.83,11.48,24.83,11.48s.76-15.67-8.42-26-24.84-11.47-24.84-11.47S315.18,404.51,324.37,414.86Z" style="fill:#fff;opacity:0.6000000000000001"></path><path d="M337.47,378.05c0,23.87,18.91,43.22,18.91,43.22s18.91-19.35,18.91-43.22-18.91-43.23-18.91-43.23S337.47,354.17,337.47,378.05Z" style="fill:#92E3A9"></path><path d="M337.47,378.05c0,23.87,18.91,43.22,18.91,43.22s18.91-19.35,18.91-43.22-18.91-43.23-18.91-43.23S337.47,354.17,337.47,378.05Z" style="fill:#fff;opacity:0.6000000000000001"></path><line x1="356.38" y1="421.27" x2="356.38" y2="334.82" style="fill:none;stroke:#92E3A9;stroke-miterlimit:10"></line><line x1="356.38" y1="365.55" x2="345.79" y2="356.31" style="fill:none;stroke:#92E3A9;stroke-miterlimit:10"></line><line x1="356.55" y1="379.84" x2="369.66" y2="360.84" style="fill:none;stroke:#92E3A9;stroke-miterlimit:10"></line><line x1="356.38" y1="388.07" x2="340.75" y2="374.12" style="fill:none;stroke:#92E3A9;stroke-miterlimit:10"></line><line x1="356.55" y1="399.16" x2="372.01" y2="385.38" style="fill:none;stroke:#92E3A9;stroke-miterlimit:10"></line><line x1="356.55" y1="408.74" x2="344.45" y2="399.16" style="fill:none;stroke:#92E3A9;stroke-miterlimit:10"></line><line x1="349.2" y1="426.34" x2="315.94" y2="388.84" style="fill:none;stroke:#92E3A9;stroke-miterlimit:10"></line><line x1="327.76" y1="402.17" x2="319.62" y2="402.23" style="fill:none;stroke:#92E3A9;stroke-miterlimit:10"></line><line x1="333.33" y1="408.3" x2="331.71" y2="395.02" style="fill:none;stroke:#92E3A9;stroke-miterlimit:10"></line><line x1="336.43" y1="411.94" x2="324.28" y2="411.9" style="fill:none;stroke:#92E3A9;stroke-miterlimit:10"></line><line x1="340.77" y1="416.68" x2="342.17" y2="404.76" style="fill:none;stroke:#92E3A9;stroke-miterlimit:10"></line><line x1="344.45" y1="420.84" x2="335.52" y2="421.34" style="fill:none;stroke:#92E3A9;stroke-miterlimit:10"></line><path d="M372.55,400c-9.64,9.93-9.59,25.62-9.59,25.62s15.69-.41,25.33-10.34,9.59-25.62,9.59-25.62S382.2,390,372.55,400Z" style="fill:#92E3A9"></path><path d="M372.55,400c-9.64,9.93-9.59,25.62-9.59,25.62s15.69-.41,25.33-10.34,9.59-25.62,9.59-25.62S382.2,390,372.55,400Z" style="fill:#fff;opacity:0.6000000000000001"></path><line x1="362.96" y1="425.57" x2="397.88" y2="389.61" style="fill:none;stroke:#92E3A9;stroke-miterlimit:10"></line><line x1="385.47" y1="402.39" x2="384.8" y2="394.27" style="fill:none;stroke:#92E3A9;stroke-miterlimit:10"></line><line x1="379.77" y1="408.4" x2="392.89" y2="405.8" style="fill:none;stroke:#92E3A9;stroke-miterlimit:10"></line><line x1="376.37" y1="411.76" x2="375.5" y2="399.64" style="fill:none;stroke:#92E3A9;stroke-miterlimit:10"></line><line x1="371.96" y1="416.44" x2="383.96" y2="416.95" style="fill:none;stroke:#92E3A9;stroke-miterlimit:10"></line><line x1="368.09" y1="420.43" x2="366.93" y2="411.55" style="fill:none;stroke:#92E3A9;stroke-miterlimit:10"></line><path d="M152.85,377.09c7.79,8.78,21.05,9.73,21.05,9.73s.64-13.28-7.14-22.06-21-9.72-21-9.72S145.07,368.32,152.85,377.09Z" style="fill:#92E3A9"></path><path d="M152.85,377.09c7.79,8.78,21.05,9.73,21.05,9.73s.64-13.28-7.14-22.06-21-9.72-21-9.72S145.07,368.32,152.85,377.09Z" style="fill:#fff;opacity:0.6000000000000001"></path><path d="M164,345.89c0,20.23,16,36.63,16,36.63s16-16.4,16-36.63-16-36.63-16-36.63S164,325.66,164,345.89Z" style="fill:#92E3A9"></path><path d="M164,345.89c0,20.23,16,36.63,16,36.63s16-16.4,16-36.63-16-36.63-16-36.63S164,325.66,164,345.89Z" style="fill:#fff;opacity:0.6000000000000001"></path><line x1="179.98" y1="382.52" x2="179.98" y2="309.26" style="fill:none;stroke:#92E3A9;stroke-miterlimit:10"></line><line x1="179.98" y1="335.3" x2="171.01" y2="327.47" style="fill:none;stroke:#92E3A9;stroke-miterlimit:10"></line><line x1="180.12" y1="347.41" x2="191.23" y2="331.31" style="fill:none;stroke:#92E3A9;stroke-miterlimit:10"></line><line x1="179.98" y1="354.39" x2="166.74" y2="342.57" style="fill:none;stroke:#92E3A9;stroke-miterlimit:10"></line><line x1="180.12" y1="363.79" x2="193.23" y2="352.11" style="fill:none;stroke:#92E3A9;stroke-miterlimit:10"></line><line x1="180.12" y1="371.91" x2="169.87" y2="363.79" style="fill:none;stroke:#92E3A9;stroke-miterlimit:10"></line><line x1="173.9" y1="386.82" x2="145.71" y2="355.04" style="fill:none;stroke:#92E3A9;stroke-miterlimit:10"></line><line x1="155.73" y1="366.33" x2="148.83" y2="366.39" style="fill:none;stroke:#92E3A9;stroke-miterlimit:10"></line><line x1="160.45" y1="371.53" x2="159.08" y2="360.27" style="fill:none;stroke:#92E3A9;stroke-miterlimit:10"></line><line x1="163.07" y1="374.61" x2="152.78" y2="374.58" style="fill:none;stroke:#92E3A9;stroke-miterlimit:10"></line><line x1="166.75" y1="378.64" x2="167.94" y2="368.53" style="fill:none;stroke:#92E3A9;stroke-miterlimit:10"></line><line x1="169.87" y1="382.16" x2="162.3" y2="382.58" style="fill:none;stroke:#92E3A9;stroke-miterlimit:10"></line><path d="M193.69,364.45c-8.17,8.42-8.13,21.72-8.13,21.72s13.29-.35,21.46-8.77,8.13-21.71,8.13-21.71S201.86,356,193.69,364.45Z" style="fill:#92E3A9"></path><path d="M193.69,364.45c-8.17,8.42-8.13,21.72-8.13,21.72s13.29-.35,21.46-8.77,8.13-21.71,8.13-21.71S201.86,356,193.69,364.45Z" style="fill:#fff;opacity:0.6000000000000001"></path><line x1="185.56" y1="386.17" x2="215.15" y2="355.69" style="fill:none;stroke:#92E3A9;stroke-miterlimit:10"></line><line x1="204.63" y1="366.52" x2="204.06" y2="359.64" style="fill:none;stroke:#92E3A9;stroke-miterlimit:10"></line><line x1="199.8" y1="371.62" x2="210.92" y2="369.41" style="fill:none;stroke:#92E3A9;stroke-miterlimit:10"></line><line x1="196.92" y1="374.46" x2="196.19" y2="364.19" style="fill:none;stroke:#92E3A9;stroke-miterlimit:10"></line><line x1="193.19" y1="378.43" x2="203.35" y2="378.86" style="fill:none;stroke:#92E3A9;stroke-miterlimit:10"></line><line x1="189.91" y1="381.81" x2="188.92" y2="374.29" style="fill:none;stroke:#92E3A9;stroke-miterlimit:10"></line><path d="M121.67,425.33c4.88,5.5,13.19,6.1,13.19,6.1s.4-8.32-4.48-13.82-13.19-6.1-13.19-6.1S116.79,419.83,121.67,425.33Z" style="fill:#92E3A9"></path><path d="M121.67,425.33c4.88,5.5,13.19,6.1,13.19,6.1s.4-8.32-4.48-13.82-13.19-6.1-13.19-6.1S116.79,419.83,121.67,425.33Z" style="fill:#fff;opacity:0.6000000000000001"></path><path d="M128.63,405.78c0,12.68,10,23,10,23s10-10.28,10-23-10-22.95-10-22.95S128.63,393.1,128.63,405.78Z" style="fill:#92E3A9"></path><path d="M128.63,405.78c0,12.68,10,23,10,23s10-10.28,10-23-10-22.95-10-22.95S128.63,393.1,128.63,405.78Z" style="fill:#fff;opacity:0.6000000000000001"></path><line x1="138.67" y1="428.74" x2="138.67" y2="382.83" style="fill:none;stroke:#92E3A9;stroke-miterlimit:10;stroke-width:0.5px"></line><line x1="138.67" y1="399.14" x2="133.05" y2="394.24" style="fill:none;stroke:#92E3A9;stroke-miterlimit:10;stroke-width:0.5px"></line><line x1="138.76" y1="406.73" x2="145.72" y2="396.65" style="fill:none;stroke:#92E3A9;stroke-miterlimit:10;stroke-width:0.5px"></line><line x1="138.67" y1="411.1" x2="130.37" y2="403.7" style="fill:none;stroke:#92E3A9;stroke-miterlimit:10;stroke-width:0.5px"></line><line x1="138.76" y1="416.99" x2="146.97" y2="409.68" style="fill:none;stroke:#92E3A9;stroke-miterlimit:10;stroke-width:0.5px"></line><line x1="138.76" y1="422.08" x2="132.33" y2="416.99" style="fill:none;stroke:#92E3A9;stroke-miterlimit:10;stroke-width:0.5px"></line><line x1="134.86" y1="431.43" x2="117.19" y2="411.51" style="fill:none;stroke:#92E3A9;stroke-miterlimit:10;stroke-width:0.5px"></line><line x1="123.47" y1="418.59" x2="119.14" y2="418.62" style="fill:none;stroke:#92E3A9;stroke-miterlimit:10;stroke-width:0.5px"></line><line x1="126.43" y1="421.85" x2="125.57" y2="414.79" style="fill:none;stroke:#92E3A9;stroke-miterlimit:10;stroke-width:0.5px"></line><line x1="128.07" y1="423.78" x2="121.62" y2="423.76" style="fill:none;stroke:#92E3A9;stroke-miterlimit:10;stroke-width:0.5px"></line><line x1="130.38" y1="426.3" x2="131.12" y2="419.97" style="fill:none;stroke:#92E3A9;stroke-miterlimit:10;stroke-width:0.5px"></line><line x1="132.34" y1="428.51" x2="127.59" y2="428.77" style="fill:none;stroke:#92E3A9;stroke-miterlimit:10;stroke-width:0.5px"></line><path d="M147.26,417.41c-5.12,5.28-5.1,13.61-5.1,13.61s8.33-.22,13.45-5.49,5.1-13.61,5.1-13.61S152.38,412.14,147.26,417.41Z" style="fill:#92E3A9"></path><path d="M147.26,417.41c-5.12,5.28-5.1,13.61-5.1,13.61s8.33-.22,13.45-5.49,5.1-13.61,5.1-13.61S152.38,412.14,147.26,417.41Z" style="fill:#fff;opacity:0.6000000000000001"></path><line x1="142.16" y1="431.02" x2="160.71" y2="411.92" style="fill:none;stroke:#92E3A9;stroke-miterlimit:10;stroke-width:0.5px"></line><line x1="154.12" y1="418.71" x2="153.76" y2="414.4" style="fill:none;stroke:#92E3A9;stroke-miterlimit:10;stroke-width:0.5px"></line><line x1="151.09" y1="421.9" x2="158.06" y2="420.52" style="fill:none;stroke:#92E3A9;stroke-miterlimit:10;stroke-width:0.5px"></line><line x1="149.29" y1="423.68" x2="148.82" y2="417.25" style="fill:none;stroke:#92E3A9;stroke-miterlimit:10;stroke-width:0.5px"></line><line x1="146.94" y1="426.17" x2="153.32" y2="426.44" style="fill:none;stroke:#92E3A9;stroke-miterlimit:10;stroke-width:0.5px"></line><line x1="144.89" y1="428.29" x2="144.27" y2="423.58" style="fill:none;stroke:#92E3A9;stroke-miterlimit:10;stroke-width:0.5px"></line><path d="M286,383.85c4.87,5.5,13.18,6.1,13.18,6.1s.41-8.32-4.47-13.82-13.19-6.1-13.19-6.1S281.14,378.35,286,383.85Z" style="fill:#92E3A9"></path><path d="M286,383.85c4.87,5.5,13.18,6.1,13.18,6.1s.41-8.32-4.47-13.82-13.19-6.1-13.19-6.1S281.14,378.35,286,383.85Z" style="fill:#fff;opacity:0.6000000000000001"></path><path d="M293,364.3c0,12.68,10,23,10,23s10-10.28,10-23-10-22.95-10-22.95S293,351.63,293,364.3Z" style="fill:#92E3A9"></path><path d="M293,364.3c0,12.68,10,23,10,23s10-10.28,10-23-10-22.95-10-22.95S293,351.63,293,364.3Z" style="fill:#fff;opacity:0.6000000000000001"></path><line x1="303.02" y1="387.26" x2="303.02" y2="341.35" style="fill:none;stroke:#92E3A9;stroke-miterlimit:10;stroke-width:0.5px"></line><line x1="303.02" y1="357.67" x2="297.39" y2="352.76" style="fill:none;stroke:#92E3A9;stroke-miterlimit:10;stroke-width:0.5px"></line><line x1="303.11" y1="365.25" x2="310.07" y2="355.17" style="fill:none;stroke:#92E3A9;stroke-miterlimit:10;stroke-width:0.5px"></line><line x1="303.02" y1="369.63" x2="294.72" y2="362.22" style="fill:none;stroke:#92E3A9;stroke-miterlimit:10;stroke-width:0.5px"></line><line x1="303.11" y1="375.52" x2="311.32" y2="368.2" style="fill:none;stroke:#92E3A9;stroke-miterlimit:10;stroke-width:0.5px"></line><line x1="303.11" y1="380.6" x2="296.68" y2="375.52" style="fill:none;stroke:#92E3A9;stroke-miterlimit:10;stroke-width:0.5px"></line><line x1="299.2" y1="389.95" x2="281.54" y2="370.03" style="fill:none;stroke:#92E3A9;stroke-miterlimit:10;stroke-width:0.5px"></line><line x1="287.82" y1="377.11" x2="283.49" y2="377.15" style="fill:none;stroke:#92E3A9;stroke-miterlimit:10;stroke-width:0.5px"></line><line x1="290.78" y1="380.37" x2="289.92" y2="373.32" style="fill:none;stroke:#92E3A9;stroke-miterlimit:10;stroke-width:0.5px"></line><line x1="292.42" y1="382.3" x2="285.97" y2="382.28" style="fill:none;stroke:#92E3A9;stroke-miterlimit:10;stroke-width:0.5px"></line><line x1="294.73" y1="384.82" x2="295.47" y2="378.49" style="fill:none;stroke:#92E3A9;stroke-miterlimit:10;stroke-width:0.5px"></line><line x1="296.68" y1="387.03" x2="291.94" y2="387.29" style="fill:none;stroke:#92E3A9;stroke-miterlimit:10;stroke-width:0.5px"></line><path d="M311.61,375.93c-5.12,5.28-5.1,13.61-5.1,13.61s8.33-.22,13.45-5.49,5.09-13.61,5.09-13.61S316.73,370.66,311.61,375.93Z" style="fill:#92E3A9"></path><path d="M311.61,375.93c-5.12,5.28-5.1,13.61-5.1,13.61s8.33-.22,13.45-5.49,5.09-13.61,5.09-13.61S316.73,370.66,311.61,375.93Z" style="fill:#fff;opacity:0.6000000000000001"></path><line x1="306.51" y1="389.54" x2="325.05" y2="370.44" style="fill:none;stroke:#92E3A9;stroke-miterlimit:10;stroke-width:0.5px"></line><line x1="318.46" y1="377.23" x2="318.11" y2="372.92" style="fill:none;stroke:#92E3A9;stroke-miterlimit:10;stroke-width:0.5px"></line><line x1="315.44" y1="380.42" x2="322.41" y2="379.04" style="fill:none;stroke:#92E3A9;stroke-miterlimit:10;stroke-width:0.5px"></line><line x1="313.63" y1="382.21" x2="313.17" y2="375.77" style="fill:none;stroke:#92E3A9;stroke-miterlimit:10;stroke-width:0.5px"></line><line x1="311.29" y1="384.69" x2="317.66" y2="384.96" style="fill:none;stroke:#92E3A9;stroke-miterlimit:10;stroke-width:0.5px"></line><line x1="309.24" y1="386.81" x2="308.62" y2="382.1" style="fill:none;stroke:#92E3A9;stroke-miterlimit:10;stroke-width:0.5px"></line></g><g id="freepik--Tree--inject-2"><path d="M397.41,209.19c5.29-.52,9.17-5.13,9.17-5.13s-4.7-3.77-10-3.25a9.83,9.83,0,0,0-1.9.37,9.63,9.63,0,0,0,1.42-5,10.12,10.12,0,0,0-3,.72c1.64-14.59-3.54-29.4-15.48-42a11.17,11.17,0,0,0,1.43.17c5.52.24,10.18-3.94,10.18-3.94s-4-4.23-9.23-4.75a19.43,19.43,0,0,0,3.35-2.37c7.11-6.33,7.86-17.1,7.86-17.1s-10.78-.5-17.89,5.83a20.09,20.09,0,0,0-2.37,2.53,17.3,17.3,0,0,0-3.22-8.75,16.17,16.17,0,0,0-1.71,1.7c-7.19-23.46-28.84-39.51-57.64-42.12a14.67,14.67,0,0,0,1.46-2.81s-4.6-1.52-8.64.19a16,16,0,0,0,1.52-3.07c2.69-7.45-1-15.61-1-15.61s-8.08,3.9-10.77,11.34a16.89,16.89,0,0,0-.73,2.79,14.31,14.31,0,0,0-5.82-5.12,14.84,14.84,0,0,0-.87,3.53,72.86,72.86,0,0,0-83,4.23,15.09,15.09,0,0,0-1.45-6.34s-4.26,2.34-5.75,6.45a16.39,16.39,0,0,0-1.21-3.2c-3.62-7-12.12-9.89-12.12-9.89s-2.66,8.57,1,15.61a15.68,15.68,0,0,0,1.54,2.43,14.4,14.4,0,0,0-7.71.77,13.46,13.46,0,0,0,1.1,1.88c-25.55,4.55-44.23,19.88-50.67,41.13a17.88,17.88,0,0,0-2.67-1.8s-2.51,5.25-1.11,10.32a19,19,0,0,0-3.42-2.27c-8.46-4.36-18.78-1.18-18.78-1.18s3.41,10.24,11.88,14.59a19.21,19.21,0,0,0,3.22,1.3,17.24,17.24,0,0,0-7,6.15,17.87,17.87,0,0,0,7.47,2.09c-22.22,25.31-18.59,57.92,10.45,80.3,0,2,0,3.89.2,5.79a18.05,18.05,0,0,0-7.19.8s2.09,5.43,6.75,7.87a20,20,0,0,0-4,.95c-9,3.18-13.72,12.86-13.72,12.86s9.79,4.53,18.76,1.35a18.86,18.86,0,0,0,3.15-1.45,13,13,0,0,0-.7,2.9,3.31,3.31,0,0,0,0,.33,18.55,18.55,0,0,0,.42,6.09,18.21,18.21,0,0,0,6.22-3.6l.17,0c.16.23.33.45.5.67a15.86,15.86,0,0,0-1.64,1.73c-4.94,6.19-4.05,15.11-4.05,15.11S139,290.2,144,284l.2-.28c1.33,1.18,2.63,2.14,4.08,3.21.63.52,1,.86,1.39,1.11,12.78,9,29.81,13.74,49.28,12.75,30.06,26.7,73.16,25.83,101.77-2.05,17.84.19,33.4-4.36,45.33-12.39a9.61,9.61,0,0,0,3.42,3.9,9.3,9.3,0,0,0,1.06-5.71,10.61,10.61,0,0,0,1.81,1.42c4.52,2.79,10.4,1.46,10.4,1.46s-1.46-5.84-6-8.63a11.1,11.1,0,0,0-1-.54q.63-.66,1.23-1.32a10.35,10.35,0,0,0,2.22-2.13l-.26-.16C367.51,264,372,250.33,371,234.93c9-7.57,15.2-16.09,18.79-25a7.39,7.39,0,0,0,2.09,2.83,9.09,9.09,0,0,0,5.88,1.57,9.29,9.29,0,0,0-2.61-5.18A11,11,0,0,0,397.41,209.19Z" style="fill:#92E3A9;stroke:#263238;stroke-miterlimit:10"></path><path d="M397.41,209.19c5.29-.52,9.17-5.13,9.17-5.13s-4.7-3.77-10-3.25a9.83,9.83,0,0,0-1.9.37,9.63,9.63,0,0,0,1.42-5,10.12,10.12,0,0,0-3,.72c1.64-14.59-3.54-29.4-15.48-42a11.17,11.17,0,0,0,1.43.17c5.52.24,10.18-3.94,10.18-3.94s-4-4.23-9.23-4.75a19.43,19.43,0,0,0,3.35-2.37c7.11-6.33,7.86-17.1,7.86-17.1s-10.78-.5-17.89,5.83a20.09,20.09,0,0,0-2.37,2.53,17.3,17.3,0,0,0-3.22-8.75,16.17,16.17,0,0,0-1.71,1.7c-7.19-23.46-28.84-39.51-57.64-42.12a14.67,14.67,0,0,0,1.46-2.81s-4.6-1.52-8.64.19a16,16,0,0,0,1.52-3.07c2.69-7.45-1-15.61-1-15.61s-8.08,3.9-10.77,11.34a16.89,16.89,0,0,0-.73,2.79,14.31,14.31,0,0,0-5.82-5.12,14.84,14.84,0,0,0-.87,3.53,72.86,72.86,0,0,0-83,4.23,15.09,15.09,0,0,0-1.45-6.34s-4.26,2.34-5.75,6.45a16.39,16.39,0,0,0-1.21-3.2c-3.62-7-12.12-9.89-12.12-9.89s-2.66,8.57,1,15.61a15.68,15.68,0,0,0,1.54,2.43,14.4,14.4,0,0,0-7.71.77,13.46,13.46,0,0,0,1.1,1.88c-25.55,4.55-44.23,19.88-50.67,41.13a17.88,17.88,0,0,0-2.67-1.8s-2.51,5.25-1.11,10.32a19,19,0,0,0-3.42-2.27c-8.46-4.36-18.78-1.18-18.78-1.18s3.41,10.24,11.88,14.59a19.21,19.21,0,0,0,3.22,1.3,17.24,17.24,0,0,0-7,6.15,17.87,17.87,0,0,0,7.47,2.09c-22.22,25.31-18.59,57.92,10.45,80.3,0,2,0,3.89.2,5.79a18.05,18.05,0,0,0-7.19.8s2.09,5.43,6.75,7.87a20,20,0,0,0-4,.95c-9,3.18-13.72,12.86-13.72,12.86s9.79,4.53,18.76,1.35a18.86,18.86,0,0,0,3.15-1.45,12,12,0,0,0-.58,2.13,14.79,14.79,0,0,0-.23,2.2,17,17,0,0,0,0,2c0,.54.1,1.08.19,1.61.05.35.12.7.2,1,0,.11,0,.21.07.32a18.21,18.21,0,0,0,6.22-3.6l.17,0c.16.23.33.45.5.67a15.86,15.86,0,0,0-1.64,1.73c-4.94,6.19-4.05,15.11-4.05,15.11S139,290.2,144,284l.2-.28c1.33,1.18,2.45,2,3.89,3.08.81.59,1.2,1,1.58,1.24,12.78,9,29.81,13.74,49.28,12.75,30.06,26.7,73.16,25.83,101.77-2.05,17.84.19,33.4-4.36,45.33-12.39a9.61,9.61,0,0,0,3.42,3.9,9.3,9.3,0,0,0,1.06-5.71,10.61,10.61,0,0,0,1.81,1.42c4.52,2.79,10.4,1.46,10.4,1.46s-1.46-5.84-6-8.63a11.1,11.1,0,0,0-1-.54q.63-.66,1.23-1.32a10.35,10.35,0,0,0,2.22-2.13l-.26-.16C367.51,264,372,250.33,371,234.93c9-7.57,15.2-16.09,18.79-25a7.39,7.39,0,0,0,2.09,2.83,9.09,9.09,0,0,0,5.88,1.57,9.29,9.29,0,0,0-2.61-5.18A11,11,0,0,0,397.41,209.19Z" style="opacity:0.1"></path><path d="M322.3,415.91c-15.76-2.52-37.51-13.56-37.51-34s-3.15-138.26,0-146.14,10.09-5,17-2.52a17.15,17.15,0,0,1,8,6.38,2.68,2.68,0,0,0,4.13.4,2.59,2.59,0,0,0-.75-4.05c-2.84-1.4-6.7-3.78-7.28-6.51-1-4.41.31-4.1,2.2-5.36a65.09,65.09,0,0,0,5.79-5.2,2.68,2.68,0,1,0-3.9-3.62c-2.27,3.06-7.39,8.63-13.86,7.25-8.83-1.89-14.82-9.14-12-24,2-10.27,10.15-21.45,15-27.34a3.25,3.25,0,0,0-1.09-5.24,3.3,3.3,0,0,0-4.31,1.52c-2.85,5.67-10.54,19.65-16.83,19.4-5.53-.22-12-3.85-15.35-6a1.92,1.92,0,0,0-2.76.67,1.86,1.86,0,0,0,.78,2.49c6.59,3.46,13.61,10.62,14.49,13.87.95,3.47-.94,9.14-7.24,20.8s-24,17.65-32.78,4.73c-7-10.28-8.86-32.92-7.85-43.13a3.46,3.46,0,0,0-3.11-3.85,3.38,3.38,0,0,0-3.6,3.42c.12,7.67,3.7,24,.69,32.53-3.78,10.72-16.07,16.07-23.64,10.4-5.32-4-4.24-14.24-3.13-20a2.16,2.16,0,0,0-2.59-2.72,2.21,2.21,0,0,0-1.81,2.18c0,3.77-.43,13.27-4.44,15.77-3.3,2.06-6.46-.45-8.25-2.44a2.09,2.09,0,0,0-2.85-.27,2.06,2.06,0,0,0-.14,3.09c1.31,1.25,3.47,3.29,6.09,5.74.94,1.33,2.21,3.65,1.37,5.55s-5.2,2.86-7.79,3.23a1.67,1.67,0,0,0-1.36,2.11l0,.08a1.69,1.69,0,0,0,2.44,1c3.49-1.83,11.7-2,13.52-1.94,9.24.59,18.28,6.43,23.19,14.16s4.66,18.35,5.21,27.22c1.26,20.48,1.64,114.78-3.72,122.66s-25,18.44-25,18.44" style="fill:#fff"></path><path d="M322.3,415.91c-15.76-2.52-37.51-13.56-37.51-34s-3.15-138.26,0-146.14,10.09-5,17-2.52a17.15,17.15,0,0,1,8,6.38,2.68,2.68,0,0,0,4.13.4,2.59,2.59,0,0,0-.75-4.05c-2.84-1.4-6.7-3.78-7.28-6.51-1-4.41.31-4.1,2.2-5.36a65.09,65.09,0,0,0,5.79-5.2,2.68,2.68,0,1,0-3.9-3.62c-2.27,3.06-7.39,8.63-13.86,7.25-8.83-1.89-14.82-9.14-12-24,2-10.27,10.15-21.45,15-27.34a3.25,3.25,0,0,0-1.09-5.24,3.3,3.3,0,0,0-4.31,1.52c-2.85,5.67-10.54,19.65-16.83,19.4-5.53-.22-12-3.85-15.35-6a1.92,1.92,0,0,0-2.76.67,1.86,1.86,0,0,0,.78,2.49c6.59,3.46,13.61,10.62,14.49,13.87.95,3.47-.94,9.14-7.24,20.8s-24,17.65-32.78,4.73c-7-10.28-8.86-32.92-7.85-43.13a3.46,3.46,0,0,0-3.11-3.85,3.38,3.38,0,0,0-3.6,3.42c.12,7.67,3.7,24,.69,32.53-3.78,10.72-16.07,16.07-23.64,10.4-5.32-4-4.24-14.24-3.13-20a2.16,2.16,0,0,0-2.59-2.72,2.21,2.21,0,0,0-1.81,2.18c0,3.77-.43,13.27-4.44,15.77-3.3,2.06-6.46-.45-8.25-2.44a2.09,2.09,0,0,0-2.85-.27,2.06,2.06,0,0,0-.14,3.09c1.31,1.25,3.47,3.29,6.09,5.74.94,1.33,2.21,3.65,1.37,5.55s-5.2,2.86-7.79,3.23a1.67,1.67,0,0,0-1.36,2.11l0,.08a1.69,1.69,0,0,0,2.44,1c3.49-1.83,11.7-2,13.52-1.94,9.24.59,18.28,6.43,23.19,14.16s4.66,18.35,5.21,27.22c1.26,20.48,1.64,114.78-3.72,122.66s-25,18.44-25,18.44" style="fill:none;stroke:#263238;stroke-linecap:round;stroke-linejoin:round;stroke-width:0.75px"></path><path d="M322.3,415.91c-15.76-2.52-37.51-13.56-37.51-34s-3.15-138.26,0-146.14,10.09-5,17-2.52a17.15,17.15,0,0,1,8,6.38,2.68,2.68,0,0,0,4.13.4,2.59,2.59,0,0,0-.75-4.05c-2.84-1.4-6.7-3.78-7.28-6.51-1-4.41.31-4.1,2.2-5.36a65.09,65.09,0,0,0,5.79-5.2,2.68,2.68,0,1,0-3.9-3.62c-2.27,3.06-7.39,8.63-13.86,7.25-8.83-1.89-14.82-9.14-12-24,2-10.27,10.15-21.45,15-27.34a3.25,3.25,0,0,0-1.09-5.24,3.3,3.3,0,0,0-4.31,1.52c-2.85,5.67-10.54,19.65-16.83,19.4-5.53-.22-12-3.85-15.35-6a1.92,1.92,0,0,0-2.76.67,1.86,1.86,0,0,0,.78,2.49c6.59,3.46,13.61,10.62,14.49,13.87.95,3.47-.94,9.14-7.24,20.8s-24,17.65-32.78,4.73c-7-10.28-8.86-32.92-7.85-43.13a3.46,3.46,0,0,0-3.11-3.85,3.38,3.38,0,0,0-3.6,3.42c.12,7.67,3.7,24,.69,32.53-3.78,10.72-16.07,16.07-23.64,10.4-5.32-4-4.24-14.24-3.13-20a2.16,2.16,0,0,0-2.59-2.72,2.21,2.21,0,0,0-1.81,2.18c0,3.77-.43,13.27-4.44,15.77-3.3,2.06-6.46-.45-8.25-2.44a2.09,2.09,0,0,0-2.85-.27,2.06,2.06,0,0,0-.14,3.09c1.31,1.25,3.47,3.29,6.09,5.74.94,1.33,2.21,3.65,1.37,5.55s-5.2,2.86-7.79,3.23a1.67,1.67,0,0,0-1.36,2.11l0,.08a1.69,1.69,0,0,0,2.44,1c3.49-1.83,11.7-2,13.52-1.94,9.24.59,18.28,6.43,23.19,14.16s4.66,18.35,5.21,27.22c1.26,20.48,1.64,114.78-3.72,122.66s-25,18.44-25,18.44" style="fill:#fff"></path><g style="clip-path:url(#freepik--clip-path--inject-1--inject-2--inject-2)"><path d="M317.63,415.93a52.77,52.77,0,0,1-8-3s-1.63-.86-4.08-2.43c-7.41-3.69-14.18-9.13-17.87-16.39-.25-.38-.49-.75-.72-1.13l-.11-.66a27,27,0,0,1-2.08-10.46c0-2.06,0-5.11-.09-8.91-.37-5.1-.59-10.61-.44-15.8,0-1.49.06-3.64.08-6.29-.51-28.83-1.21-69.28-.85-93.88-.09-6.23-.14-10.05-.14-10.05s.14-.51.43-1.29c.22-5.23.55-8.76,1-9.92,3.15-7.88,10.09-5,17-2.52a17.15,17.15,0,0,1,8,6.38,2.75,2.75,0,0,0,3.55.86c-1.56-1.32-3.57-3.08-6.43-5.3-8.16-6.35-17.23-10.88-24.94-4.53s-13.61,22.22-13.61,31.74v82.55s1.36,6.8-3.17,4.08,1.81-23.13-3.63-32.65S257,321.78,258,331.76s0,34-1.82,36.28-3.17-11.79-4.08-7.25.91,23.58.91,26.76,1.81,5.44,6.35,6.35,4.54,8.16,6.8,14.06c1.53,4,4.9,7.72,6.67,8.24h.69c.4-.18.56-.77.35-1.88-.9-5-10.06-10.32-5.48-16.05s12.74.62,13.65,2,15.45,9.42,17.47,11.06,5.17.86,2.38,4.72Z" style="fill:#92E3A9;opacity:0.5;mix-blend-mode:multiply"></path><path d="M217.13,299.25s3.53,32.1,4.94,26.46-1.06-56.44,2.47-49.39.7,73.37.7,79.37,2.47-.35,2.47-11.29.36-47.62,1.77-34.21-.36,65.61-.36,73.72-2.47,18-6,19.4-3.88-1.06-7.06-1.06-16.22,10.94-19.4,12.7-8.11,4.94-2.12-1.41,18.7-10.23,19.76-20.81,2.47-73,2.47-73Z" style="fill:#92E3A9;opacity:0.5;mix-blend-mode:multiply"></path></g><path d="M322.3,415.91c-15.76-2.52-37.51-13.56-37.51-34s-3.15-138.26,0-146.14,10.09-5,17-2.52a17.15,17.15,0,0,1,8,6.38,2.68,2.68,0,0,0,4.13.4,2.59,2.59,0,0,0-.75-4.05c-2.84-1.4-6.7-3.78-7.28-6.51-1-4.41.31-4.1,2.2-5.36a65.09,65.09,0,0,0,5.79-5.2,2.68,2.68,0,1,0-3.9-3.62c-2.27,3.06-7.39,8.63-13.86,7.25-8.83-1.89-14.82-9.14-12-24,2-10.27,10.15-21.45,15-27.34a3.25,3.25,0,0,0-1.09-5.24,3.3,3.3,0,0,0-4.31,1.52c-2.85,5.67-10.54,19.65-16.83,19.4-5.53-.22-12-3.85-15.35-6a1.92,1.92,0,0,0-2.76.67,1.86,1.86,0,0,0,.78,2.49c6.59,3.46,13.61,10.62,14.49,13.87.95,3.47-.94,9.14-7.24,20.8s-24,17.65-32.78,4.73c-7-10.28-8.86-32.92-7.85-43.13a3.46,3.46,0,0,0-3.11-3.85,3.38,3.38,0,0,0-3.6,3.42c.12,7.67,3.7,24,.69,32.53-3.78,10.72-16.07,16.07-23.64,10.4-5.32-4-4.24-14.24-3.13-20a2.16,2.16,0,0,0-2.59-2.72,2.21,2.21,0,0,0-1.81,2.18c0,3.77-.43,13.27-4.44,15.77-3.3,2.06-6.46-.45-8.25-2.44a2.09,2.09,0,0,0-2.85-.27,2.06,2.06,0,0,0-.14,3.09c1.31,1.25,3.47,3.29,6.09,5.74.94,1.33,2.21,3.65,1.37,5.55s-5.2,2.86-7.79,3.23a1.67,1.67,0,0,0-1.36,2.11l0,.08a1.69,1.69,0,0,0,2.44,1c3.49-1.83,11.7-2,13.52-1.94,9.24.59,18.28,6.43,23.19,14.16s4.66,18.35,5.21,27.22c1.26,20.48,1.64,114.78-3.72,122.66s-25,18.44-25,18.44" style="fill:none;stroke:#263238;stroke-linecap:round;stroke-linejoin:round;stroke-width:0.75px"></path><path d="M263.27,223.55c-7.87,8.2-21.73,10.86-29.22-.11-7-10.28-8.86-32.92-7.85-43.13a3.46,3.46,0,0,0-3.11-3.85,3.38,3.38,0,0,0-3.6,3.42c.12,7.67,3.7,24,.69,32.53-3.78,10.72-16.07,16.07-23.64,10.4-5.32-4-4.24-14.24-3.13-20a2.16,2.16,0,0,0-2.59-2.72,2.21,2.21,0,0,0-1.81,2.18c0,3.77-.43,13.27-4.44,15.77-3.3,2.06-6.46-.45-8.25-2.44a2.09,2.09,0,0,0-2.85-.27,2.06,2.06,0,0,0-.14,3.09c1.31,1.25,3.47,3.29,6.09,5.74.94,1.33,2.21,3.65,1.37,5.55s-5.2,2.86-7.79,3.23a1.67,1.67,0,0,0-1.36,2.11l0,.08a1.69,1.69,0,0,0,2.44,1c3.49-1.83,11.7-2,13.52-1.94.55,0,1.11.1,1.66.17-2.49-2.93-7.86-10.12-.27-10.12,9.52,0,21.77,9.52,27.21,7.71s8.62-11.34,10.89-7.71,4.53,13.6,15.42,15.42C252.39,241.33,260.77,232.91,263.27,223.55Z" style="fill:#92E3A9;opacity:0.5;mix-blend-mode:multiply"></path><path d="M259.58,184c6.59,3.46,13.61,10.62,14.49,13.87.75,2.75-.29,6.88-3.87,14.26.08,10.9,1.16-2.9,7.25-14.21a34.16,34.16,0,0,1,4.63-6.37,29.77,29.77,0,0,0-1,3.19c-3.17,13.16-3.17,20.87,1.36,25.86s10.43,5.44,15.88,4.53c2.11-.35,4.36-2.35,6.51-4.76a11,11,0,0,1-8.69,2.09c-8.83-1.89-14.82-9.14-12-24,1-5,3.41-10.26,6.23-15h0a102.65,102.65,0,0,1,7.72-11.07l.07-.09c.33-.41.65-.81,1-1.18a4,4,0,0,0,.45-.68c.05-.09.08-.18.12-.27s.12-.29.16-.43a2.57,2.57,0,0,0,.08-.38c0-.11,0-.21.05-.32a3.38,3.38,0,0,0,0-.45,1.77,1.77,0,0,0,0-.23,4.54,4.54,0,0,0-.12-.5l0-.13a2.78,2.78,0,0,0-.25-.52l-.05-.07a2.38,2.38,0,0,0-.4-.5l0,0a3.37,3.37,0,0,0-1.05-.74,3.3,3.3,0,0,0-4.31,1.52c-2.85,5.67-10.54,19.65-16.83,19.4-5.53-.22-12-3.85-15.35-6a1.92,1.92,0,0,0-2.76.67A1.86,1.86,0,0,0,259.58,184Z" style="fill:#92E3A9;opacity:0.5;mix-blend-mode:multiply"></path><path d="M249.83,397.68s-2.94-5.64-11.07-.68-9,11.75-14.68,13.56-9.26-.23-10.39,4.51-2.26,6.55-1.36,7.23.68-5,3.84-6.32,8.81-1.58,13.1-5S243.28,396.33,249.83,397.68Z" style="fill:#92E3A9;opacity:0.5;mix-blend-mode:multiply"></path><path d="M204.44,237.56a23.67,23.67,0,0,1,11.1,13.8" style="fill:none;stroke:#263238;stroke-linecap:round;stroke-linejoin:round;stroke-width:0.75px"></path><path d="M216.31,253.59a69.49,69.49,0,0,1,.8,6.91" style="fill:none;stroke:#263238;stroke-linecap:round;stroke-linejoin:round;stroke-width:0.75px"></path><path d="M218.4,270.48s2.25,65.46.48,90.23" style="fill:none;stroke:#263238;stroke-linecap:round;stroke-linejoin:round;stroke-width:0.75px"></path><path d="M218.88,364.09s-.8,16.25-1.13,18.82" style="fill:none;stroke:#263238;stroke-linecap:round;stroke-linejoin:round;stroke-width:0.75px"></path><line x1="225.15" y1="284.15" x2="225.48" y2="296.21" style="fill:none;stroke:#263238;stroke-linecap:round;stroke-linejoin:round;stroke-width:0.75px"></line><path d="M225.64,300.23s.8,45.2.16,60.16" style="fill:none;stroke:#263238;stroke-linecap:round;stroke-linejoin:round;stroke-width:0.75px"></path><line x1="230.94" y1="340.93" x2="231.43" y2="367.63" style="fill:none;stroke:#263238;stroke-linecap:round;stroke-linejoin:round;stroke-width:0.75px"></line><line x1="231.75" y1="370.37" x2="231.91" y2="376.64" style="fill:none;stroke:#263238;stroke-linecap:round;stroke-linejoin:round;stroke-width:0.75px"></line><path d="M275.82,196s1,1.77.65,5.63a26.54,26.54,0,0,1-2.26,7.88" style="fill:none;stroke:#263238;stroke-linecap:round;stroke-linejoin:round;stroke-width:0.75px"></path><path d="M273.41,211.92s-3.86,7.56-5,8.85" style="fill:none;stroke:#263238;stroke-linecap:round;stroke-linejoin:round;stroke-width:0.75px"></path><path d="M215.66,223.67a15.1,15.1,0,0,1-13.83,3.54" style="fill:none;stroke:#263238;stroke-linecap:round;stroke-linejoin:round;stroke-width:0.75px"></path><path d="M224.83,370.69v29.92s-1.29,4.18-9.49,7.23a10,10,0,0,0-5.82,3.7c-2.51,3.2-3.66,5.95-6.86,8.47" style="fill:none;stroke:#263238;stroke-linecap:round;stroke-linejoin:round;stroke-width:0.75px"></path><line x1="231.27" y1="337.85" x2="229.89" y2="265.76" style="fill:none;stroke:#263238;stroke-linecap:round;stroke-linejoin:round;stroke-width:0.75px"></line><path d="M222.8,413.83s2.06.45,7.32-3.89,11.22-12.36,18.77-12.36,11.21,4.58,11.21,4.58" style="fill:none;stroke:#263238;stroke-linecap:round;stroke-linejoin:round;stroke-width:0.75px"></path><path d="M261,403.76a17.5,17.5,0,0,1,1.6,5.49" style="fill:none;stroke:#263238;stroke-linecap:round;stroke-linejoin:round;stroke-width:0.75px"></path><path d="M272,411.54s-7.78-7.55-3.66-13.28,13.27.69,18.08,5.27" style="fill:none;stroke:#263238;stroke-linecap:round;stroke-linejoin:round;stroke-width:0.75px"></path><path d="M289.85,405.82s.23,1.6,9.61,5.49c0,0,4.35,2.06,1.61,5.72a50.54,50.54,0,0,1-6.87,7.1" style="fill:none;stroke:#263238;stroke-linecap:round;stroke-linejoin:round;stroke-width:0.75px"></path><path d="M221,414.28a7.75,7.75,0,0,0-4.35,3.9c-1.37,3-1.37,3.89-1.37,3.89" style="fill:none;stroke:#263238;stroke-linecap:round;stroke-linejoin:round;stroke-width:0.75px"></path><path d="M318.46,421.61s-6.64-3.43-11-3.43-7.32,6.4-7.32,6.4" style="fill:none;stroke:#263238;stroke-linecap:round;stroke-linejoin:round;stroke-width:0.75px"></path><line x1="277.64" y1="279.75" x2="277.64" y2="364.71" style="fill:none;stroke:#263238;stroke-linecap:round;stroke-linejoin:round;stroke-width:0.75px"></line><line x1="281.19" y1="380.39" x2="280.9" y2="337.77" style="fill:none;stroke:#263238;stroke-linecap:round;stroke-linejoin:round;stroke-width:0.75px"></line><path d="M277.64,370s-.29,8.29,0,14.21,5.63,9.48,5.63,9.48" style="fill:none;stroke:#263238;stroke-linecap:round;stroke-linejoin:round;stroke-width:0.75px"></path><line x1="272.31" y1="273.83" x2="272.31" y2="303.43" style="fill:none;stroke:#263238;stroke-linecap:round;stroke-linejoin:round;stroke-width:0.75px"></line><path d="M236.5,230s6.51,5.33,14.8,4.74,14.5-8.29,14.5-8.29" style="fill:none;stroke:#263238;stroke-linecap:round;stroke-linejoin:round;stroke-width:0.75px"></path><path d="M225.54,279.75,225,258.44a24.87,24.87,0,0,0-5-16.28" style="fill:none;stroke:#263238;stroke-linecap:round;stroke-linejoin:round;stroke-width:0.75px"></path><path d="M221.4,404.67s-.89-3.55-6.81-.89-16.58,12.14-18.94,14.8" style="fill:none;stroke:#263238;stroke-linecap:round;stroke-linejoin:round;stroke-width:0.75px"></path><path d="M205.62,173.78s15.33,13.36,33-1.57" style="fill:#92E3A9;stroke:#263238;stroke-linecap:round;stroke-linejoin:round;stroke-width:0.75px"></path><path d="M183.21,199.72s6.69,8.26,15.33-1.57" style="fill:#92E3A9;stroke:#263238;stroke-linecap:round;stroke-linejoin:round;stroke-width:0.75px"></path><path d="M176.14,211.12s3.93,10.22-8.65,9" style="fill:#92E3A9;stroke:#263238;stroke-linecap:round;stroke-linejoin:round;stroke-width:0.75px"></path><path d="M168.28,230.38s7.86,2,4.71,9.44" style="fill:#92E3A9;stroke:#263238;stroke-linecap:round;stroke-linejoin:round;stroke-width:0.75px"></path><path d="M248.86,181.25s0,3.93,7.86,3.93,5.9-8.65,5.9-8.65" style="fill:#92E3A9;stroke:#263238;stroke-linecap:round;stroke-linejoin:round;stroke-width:0.75px"></path><path d="M287.77,162s-1.18,8.65,8.65,11.4,15.72-6.69,15.72-6.69" style="fill:#92E3A9;stroke:#263238;stroke-linecap:round;stroke-linejoin:round;stroke-width:0.75px"></path><path d="M311,208.76s-5.11,4.33-1.18,9.44,8.64,3.14,8.64,3.14" style="fill:#92E3A9;stroke:#263238;stroke-linecap:round;stroke-linejoin:round;stroke-width:0.75px"></path><path d="M322,235.89s-6.26-5.74-11.4,2,4.33,13.37,4.33,13.37" style="fill:#92E3A9;stroke:#263238;stroke-linecap:round;stroke-linejoin:round;stroke-width:0.75px"></path><path d="M205.62,173.78s15.33,13.36,33-1.57" style="opacity:0.1"></path><path d="M183.21,199.72s6.69,8.26,15.33-1.57" style="opacity:0.1"></path><path d="M176.14,211.12s3.93,10.22-8.65,9" style="opacity:0.1"></path><path d="M168.28,230.38s7.86,2,4.71,9.44" style="opacity:0.1"></path><path d="M248.86,181.25s0,3.93,7.86,3.93,5.9-8.65,5.9-8.65" style="opacity:0.1"></path><path d="M287.77,162s-1.18,8.65,8.65,11.4,15.72-6.69,15.72-6.69" style="opacity:0.1"></path><path d="M311,208.76s-5.11,4.33-1.18,9.44,8.64,3.14,8.64,3.14" style="opacity:0.1"></path><path d="M322,235.89s-6.26-5.74-11.4,2,4.33,13.37,4.33,13.37" style="opacity:0.1"></path><path d="M246.52,160.7h0a20,20,0,0,1-20-20h0a20,20,0,0,1,20-20h0a20,20,0,0,1,20,20h0A20,20,0,0,1,246.52,160.7Z" style="fill:#263238"></path><path d="M258.06,140.19a10.79,10.79,0,0,0-21.56-.2c0,.16,0,.31,0,.47A10.74,10.74,0,0,0,238,146l-1.94,5.74,6-1.9a10.79,10.79,0,0,0,16-9.37A2.44,2.44,0,0,0,258.06,140.19Zm-10.78,9.27a9,9,0,0,1-5-1.49l-3.49,1.11,1.13-3.34a9,9,0,0,1-1.72-5.28,8.31,8.31,0,0,1,0-.87,9.08,9.08,0,0,1,18.07.17c0,.23,0,.46,0,.7A9,9,0,0,1,247.28,149.46Z" style="fill:#fff;fill-rule:evenodd"></path><path d="M252.22,142.62c-.27-.13-1.56-.77-1.81-.85s-.41-.13-.59.13-.69.85-.84,1-.31.2-.58.07a7.09,7.09,0,0,1-2.12-1.3,7.89,7.89,0,0,1-1.47-1.82.38.38,0,0,1,.11-.53c.13-.12.27-.31.4-.46l.1-.13a2.16,2.16,0,0,0,.17-.31.49.49,0,0,0,0-.46c-.07-.13-.6-1.42-.82-1.95s-.44-.43-.6-.43-.33,0-.5,0a1,1,0,0,0-.71.33,2.94,2.94,0,0,0-.92,2.19,3.3,3.3,0,0,0,.13.89,5.7,5.7,0,0,0,.95,1.82,10.84,10.84,0,0,0,4.51,4c2.69,1,2.69.69,3.18.65a2.64,2.64,0,0,0,1.78-1.25,2.27,2.27,0,0,0,.16-1.25A1.47,1.47,0,0,0,252.22,142.62Z" style="fill:#fff;fill-rule:evenodd"></path><path d="M347.69,245h0a20,20,0,0,1-20-20h0a20,20,0,0,1,20-20h0a20,20,0,0,1,20,20h0A20,20,0,0,1,347.69,245Z" style="fill:#263238"></path><path d="M359.66,219a3.14,3.14,0,0,0-2.21-2.22c-1.95-.53-9.76-.53-9.76-.53s-7.81,0-9.76.53a3.12,3.12,0,0,0-2.2,2.22,34.8,34.8,0,0,0,0,12.1,3.12,3.12,0,0,0,2.2,2.22c1.95.53,9.76.53,9.76.53s7.81,0,9.76-.53a3.14,3.14,0,0,0,2.21-2.22,35.45,35.45,0,0,0,0-12.1Z" style="fill:#fff"></path><polygon points="345.14 228.71 345.14 221.29 351.67 225 345.14 228.71" style="fill:#263238"></polygon><path d="M140.63,239.8h0a20,20,0,0,1-20-20h0a20,20,0,0,1,20-20h0a20,20,0,0,1,20,20h0A20,20,0,0,1,140.63,239.8Z" style="fill:#263238"></path><path d="M137.46,231.88h4.87V219.67h3.41l.36-4.09h-3.77v-2.33c0-1,.2-1.35,1.13-1.35h2.64v-4.24h-3.38c-3.63,0-5.26,1.6-5.26,4.66v3.26h-2.54v4.14h2.54Z" style="fill:#fff"></path><path d="M343.36,183.7h0a20,20,0,0,1-20-20h0a20,20,0,0,1,20-20h0a20,20,0,0,1,20,20h0A20,20,0,0,1,343.36,183.7Z" style="fill:#263238"></path><path d="M343.36,154.66c2.93,0,3.28,0,4.44.07a5.94,5.94,0,0,1,2,.37,3.69,3.69,0,0,1,2.08,2.09,6.13,6.13,0,0,1,.38,2c.05,1.16.06,1.5.06,4.44s0,3.28-.06,4.44a6,6,0,0,1-.38,2,3.35,3.35,0,0,1-.82,1.27,3.44,3.44,0,0,1-1.26.82,6.13,6.13,0,0,1-2,.38c-1.16,0-1.51.06-4.44.06s-3.28,0-4.44-.06a6.13,6.13,0,0,1-2-.38,3.44,3.44,0,0,1-1.26-.82,3.35,3.35,0,0,1-.82-1.27,6,6,0,0,1-.38-2c-.05-1.16-.07-1.51-.07-4.44s0-3.28.07-4.44a6.13,6.13,0,0,1,.38-2,3.69,3.69,0,0,1,2.08-2.09,5.94,5.94,0,0,1,2-.37c1.16-.06,1.51-.07,4.44-.07m0-2c-3,0-3.36,0-4.53.07a8,8,0,0,0-2.67.51,5.67,5.67,0,0,0-3.21,3.21,8,8,0,0,0-.51,2.67c-.05,1.17-.06,1.54-.06,4.53s0,3.35.06,4.53a8,8,0,0,0,.51,2.66,5.42,5.42,0,0,0,1.27,1.95,5.36,5.36,0,0,0,1.94,1.26,7.8,7.8,0,0,0,2.67.51c1.17.06,1.55.07,4.53.07s3.36,0,4.53-.07a7.68,7.68,0,0,0,2.66-.51,5.31,5.31,0,0,0,1.95-1.26,5.42,5.42,0,0,0,1.27-1.95,8.3,8.3,0,0,0,.51-2.66c.05-1.18.06-1.55.06-4.53s0-3.36-.06-4.53a8.31,8.31,0,0,0-.51-2.67,5.65,5.65,0,0,0-3.22-3.21,7.93,7.93,0,0,0-2.66-.51c-1.17-.05-1.55-.07-4.53-.07" style="fill:#fff"></path><path d="M343.36,158a5.64,5.64,0,1,0,5.64,5.64,5.63,5.63,0,0,0-5.64-5.64m0,9.3a3.66,3.66,0,1,1,3.66-3.66,3.66,3.66,0,0,1-3.66,3.66" style="fill:#fff"></path><path d="M350.54,157.8a1.32,1.32,0,1,1-1.32-1.31,1.32,1.32,0,0,1,1.32,1.31" style="fill:#fff"></path><path d="M317.77,291.91h0a20,20,0,0,1-20-20h0a20,20,0,0,1,20-20h0a20,20,0,0,1,20,20h0A20,20,0,0,1,317.77,291.91Z" style="fill:#263238"></path><path d="M314.78,279.49a3.84,3.84,0,0,0,2.57-1.8,4.09,4.09,0,0,0,.63-2.24,3.68,3.68,0,0,0-.55-2.06,3.1,3.1,0,0,0-1.62-1.23,3.36,3.36,0,0,0,1.07-.8,3.15,3.15,0,0,0,.65-2.07,3.57,3.57,0,0,0-.64-2.14,4.31,4.31,0,0,0-3.64-1.49h-6.78v14h6.32A9.54,9.54,0,0,0,314.78,279.49Zm-5.51-11.4h3.05a5.47,5.47,0,0,1,1.66.22,1.26,1.26,0,0,1,.75,1.3,1.32,1.32,0,0,1-.57,1.23,2.82,2.82,0,0,1-1.48.35h-3.41Zm0,9.16v-3.74h3.45a3.51,3.51,0,0,1,1.41.24,1.5,1.5,0,0,1,.89,1.5,1.77,1.77,0,0,1-.92,1.75,3.26,3.26,0,0,1-1.42.25Z" style="fill:#fff"></path><path d="M320.35,278.76A5.69,5.69,0,0,0,324,280a5,5,0,0,0,3.9-1.52,3.42,3.42,0,0,0,1-1.87h-2.77a2.13,2.13,0,0,1-2.07,1.19,2.73,2.73,0,0,1-1.49-.39,2.49,2.49,0,0,1-1.09-2.19h7.56a14.11,14.11,0,0,0-.09-2.06,5.05,5.05,0,0,0-.83-2.14,4.27,4.27,0,0,0-1.79-1.54,6,6,0,0,0-2.44-.48,5,5,0,0,0-3.71,1.43,5.64,5.64,0,0,0-1.43,4.14A5,5,0,0,0,320.35,278.76Zm1.94-6.9a2.18,2.18,0,0,1,1.62-.59,2.39,2.39,0,0,1,1.61.56,2.27,2.27,0,0,1,.72,1.64h-4.67A2.89,2.89,0,0,1,322.29,271.86Z" style="fill:#fff"></path><rect x="320.68" y="266.46" width="6.1" height="1.42" style="fill:#fff"></rect><path d="M162.49,183.66h0a20,20,0,0,1-20-20h0a20,20,0,0,1,20-20h0a20,20,0,0,1,20,20h0A20,20,0,0,1,162.49,183.66Z" style="fill:#263238"></path><path d="M151.82,170.34A12.46,12.46,0,0,0,171,159.28a8.92,8.92,0,0,0,2.19-2.27,8.87,8.87,0,0,1-2.52.69,4.38,4.38,0,0,0,1.93-2.42,9,9,0,0,1-2.78,1.06,4.39,4.39,0,0,0-7.47,4,12.4,12.4,0,0,1-9-4.57,4.37,4.37,0,0,0,1.35,5.84,4.4,4.4,0,0,1-2-.54,4.38,4.38,0,0,0,3.51,4.35,4.53,4.53,0,0,1-2,.07,4.38,4.38,0,0,0,4.09,3A8.79,8.79,0,0,1,151.82,170.34Z" style="fill:#fff"></path><path d="M187.26,132h0a20,20,0,0,1-20-20h0a20,20,0,0,1,20-20h0a20,20,0,0,1,20,20h0A20,20,0,0,1,187.26,132Z" style="fill:#263238"></path><rect x="177.61" y="107.05" width="4.15" height="13.39" style="fill:#fff"></rect><path d="M179.67,105.3a2.48,2.48,0,1,0-2.45-2.47A2.46,2.46,0,0,0,179.67,105.3Z" style="fill:#fff"></path><path d="M188.39,113.41c0-1.88.86-3,2.52-3s2.26,1.08,2.26,3v7h4.13V112c0-3.59-2-5.33-4.88-5.33a4.65,4.65,0,0,0-4,2.22v-1.81h-4v13.4h4Z" style="fill:#fff"></path><path d="M305.8,133.26h0a20,20,0,0,1-20-20h0a20,20,0,0,1,20-20h0a20,20,0,0,1,20,20h0A20,20,0,0,1,305.8,133.26Z" style="fill:#263238"></path><path d="M294.51,113.3a11.16,11.16,0,0,0,11.16,11.16,11,11,0,0,0,2.09-.2,6.51,6.51,0,0,0,8.9-9,11.32,11.32,0,0,0,.17-2,11.15,11.15,0,0,0-11.16-11.15,10.64,10.64,0,0,0-2.05.19,6.51,6.51,0,0,0-8.93,9A11.76,11.76,0,0,0,294.51,113.3Zm11.28-7.92c3.6.21,5.71,1.79,5.91,3.27a1.51,1.51,0,0,1-1.65,1.71c-1.63,0-1.8-2.17-4.6-2.17-1.26,0-2.33.53-2.33,1.67,0,2.38,9,1,9,6.25,0,3-2.42,5-6,5-3.18,0-6.38-1.44-6.36-3.92a1.39,1.39,0,0,1,1.31-1.43c1.87,0,1.85,2.78,4.83,2.78,2.09,0,2.81-1.14,2.81-1.94,0-2.87-9-1.11-9-6.51C299.62,107.17,302,105.15,305.79,105.38Z" style="fill:#fff"></path><path d="M171,287h0a20,20,0,0,1-20-20h0a20,20,0,0,1,20-20h0a20,20,0,0,1,20,20h0A20,20,0,0,1,171,287Z" style="fill:#263238"></path><path d="M182.63,272.82h0l0,0h0a3,3,0,0,0-.75-.27h0a6.53,6.53,0,0,1-3.09-2.25,7,7,0,0,1-1.05-1.85h0a.9.9,0,0,1,0-.79h0a2.17,2.17,0,0,1,1.06-.68h0a4.16,4.16,0,0,0,1.43-.74h0a.77.77,0,0,0,.21-.27.29.29,0,0,0,0-.1.48.48,0,0,0,0-.37h0a1.19,1.19,0,0,0-.5-.48h0a1,1,0,0,0-.86-.07h0a6.63,6.63,0,0,1-.76.22h0a1.68,1.68,0,0,1-.87,0,.84.84,0,0,0,0-.19h0c0-.52,0-1.06,0-1.62h0a15.13,15.13,0,0,0-.06-2.6h0a5.82,5.82,0,0,0-2.44-3.61,6.06,6.06,0,0,0-3-1.06h0a9.87,9.87,0,0,0-1.08-.05,6.65,6.65,0,0,0-4.07,1.3,6.48,6.48,0,0,0-2,2.59h0a7.34,7.34,0,0,0-.32,3.17h0a16.27,16.27,0,0,1,.05,2.08.08.08,0,0,0,0,0,2.76,2.76,0,0,1-1,0h0a6.44,6.44,0,0,1-.79-.22h0a1,1,0,0,0-.77.17h0a.79.79,0,0,0-.42.63v.06h0a.75.75,0,0,0,.26.43l.27.2h0a7.37,7.37,0,0,0,1.61.69h0a1.17,1.17,0,0,1,.72.69,1.93,1.93,0,0,1-.29,1.23h0a7.51,7.51,0,0,1-2.43,2.79,6,6,0,0,1-1.79.82h0a1,1,0,0,0-.64.37l0,.07a.54.54,0,0,0,.1.5.94.94,0,0,0,.27.21h0a6,6,0,0,0,1.66.57h0a6.11,6.11,0,0,1,1,.25l.1.29c.1.29.15.63.25,1a.31.31,0,0,0,.23.2.65.65,0,0,0,.39,0h0a6.25,6.25,0,0,1,2.61-.09h0a10.37,10.37,0,0,1,2.46,1.32h0a4,4,0,0,0,2,.72h0a15.15,15.15,0,0,0,1.66,0h0a3,3,0,0,0,1.31-.45h0c.89-.5,1.68-1.11,2.54-1.49h0a4.2,4.2,0,0,1,1-.12h0a14,14,0,0,1,2.14.11h.07a.41.41,0,0,0,.25-.14.33.33,0,0,0,.07-.15c0-.07,0-.1,0,0l0-.06a3,3,0,0,1,.41-1.06.64.64,0,0,1,.44-.13h0a8.64,8.64,0,0,0,1.7-.48h0a1.54,1.54,0,0,0,.7-.46h0a.49.49,0,0,0-.15-.69Z" style="fill:#fff;fill-rule:evenodd"></path></g></svg>